<svg xmlns="http://www.w3.org/2000/svg" xmlns:xlink="http://www.w3.org/1999/xlink" width="500" zoomAndPan="magnify" viewBox="0 0 375 374.999991" height="500" preserveAspectRatio="xMidYMid meet" version="1.0"><defs><g/><clipPath id="daaaa0b2f8"><rect x="0" width="140" y="0" height="194"/></clipPath><clipPath id="8365d15dec"><rect x="0" width="118" y="0" height="207"/></clipPath><clipPath id="c50279964a"><rect x="0" width="304" y="0" height="23"/></clipPath></defs><rect x="-37.5" width="450" fill="#ffffff" y="-37.499999" height="449.999989" fill-opacity="1"/><rect x="-37.5" width="450" fill="#ffffff" y="-37.499999" height="449.999989" fill-opacity="1"/><g transform="matrix(1, 0, 0, 1, 138, 93)"><g clip-path="url(#daaaa0b2f8)"><g fill="#000000" fill-opacity="1"><g transform="translate(0.478756, 147.011814)"><g><path d="M 77.09375 2.3125 C 63.851562 2.3125 52.15625 -0.671875 42 -6.640625 C 31.851562 -12.617188 23.921875 -20.84375 18.203125 -31.3125 C 12.492188 -41.78125 9.640625 -53.765625 9.640625 -67.265625 C 9.640625 -77.671875 11.179688 -87.429688 14.265625 -96.546875 C 17.347656 -105.671875 21.84375 -113.703125 27.75 -120.640625 C 33.65625 -127.578125 40.816406 -132.972656 49.234375 -136.828125 C 57.648438 -140.679688 67.191406 -142.609375 77.859375 -142.609375 C 84.023438 -142.609375 89.160156 -141.898438 93.265625 -140.484375 C 97.378906 -139.078125 100.847656 -137.664062 103.671875 -136.25 C 106.503906 -134.832031 108.945312 -134.125 111 -134.125 C 112.15625 -134.125 113.3125 -134.539062 114.46875 -135.375 C 115.625 -136.21875 116.203125 -137.921875 116.203125 -140.484375 L 118.71875 -140.484375 L 118.71875 -92.125 L 116.40625 -92.125 C 116.40625 -108.3125 113.128906 -120 106.578125 -127.1875 C 100.023438 -134.382812 91.03125 -137.984375 79.59375 -137.984375 C 70.988281 -137.984375 63.148438 -135.671875 56.078125 -131.046875 C 49.015625 -126.421875 43.363281 -119.546875 39.125 -110.421875 C 34.882812 -101.304688 32.765625 -90.003906 32.765625 -76.515625 C 32.765625 -63.148438 34.882812 -51.296875 39.125 -40.953125 C 43.363281 -30.609375 49.5 -22.546875 57.53125 -16.765625 C 65.5625 -10.984375 75.097656 -8.09375 86.140625 -8.09375 C 95.390625 -8.09375 103 -10.144531 108.96875 -14.25 C 114.945312 -18.363281 119.347656 -23.726562 122.171875 -30.34375 C 125.003906 -36.96875 126.421875 -44.070312 126.421875 -51.65625 L 128.921875 -51.65625 C 128.921875 -44.96875 127.925781 -38.410156 125.9375 -31.984375 C 123.945312 -25.566406 120.832031 -19.753906 116.59375 -14.546875 C 112.351562 -9.347656 106.988281 -5.238281 100.5 -2.21875 C 94.007812 0.800781 86.207031 2.3125 77.09375 2.3125 Z M 77.09375 2.3125 "/></g></g></g></g></g><g transform="matrix(1, 0, 0, 1, 112, 79)"><g clip-path="url(#8365d15dec)"><g fill="#ffffff" fill-opacity="1"><g transform="translate(2.600789, 159.150187)"><g><path d="M -0.246094 0 L -0.246094 -69.597656 L 22.636719 -69.597656 L 22.636719 -59.445312 C 22.636719 -47.707031 24.246094 -38.3125 27.46875 -31.265625 C 30.425781 -24.789062 34.304688 -20.109375 39.109375 -17.226562 C 44.105469 -14.230469 49.695312 -12.730469 55.878906 -12.730469 C 59.699219 -12.730469 63.128906 -13.285156 66.164062 -14.394531 C 68.363281 -15.195312 70.109375 -16.5 71.402344 -18.300781 C 72.644531 -20.035156 73.265625 -22.71875 73.265625 -26.351562 C 73.265625 -29.628906 72.199219 -32.671875 70.074219 -35.480469 C 67.140625 -39.351562 63.246094 -43.113281 58.386719 -46.773438 C 52.921875 -50.890625 47.164062 -54.976562 41.109375 -59.03125 C 34.664062 -63.351562 28.523438 -67.847656 22.683594 -72.515625 C 16.242188 -77.671875 10.976562 -83.332031 6.890625 -89.5 C 2.265625 -96.484375 -0.0507812 -104.167969 -0.0507812 -112.546875 C -0.0507812 -122.648438 2.808594 -131.152344 8.527344 -138.050781 C 13.796875 -144.40625 20.40625 -149.15625 28.363281 -152.304688 C 35.902344 -155.289062 43.554688 -156.785156 51.320312 -156.785156 C 57.277344 -156.785156 62.460938 -156.160156 66.867188 -154.914062 C 71.117188 -153.710938 74.835938 -152.226562 78.027344 -150.464844 C 80.378906 -149.164062 82.492188 -148.0625 84.375 -147.148438 C 85.027344 -146.835938 85.566406 -146.679688 85.996094 -146.679688 C 86.203125 -146.679688 86.359375 -146.683594 86.464844 -146.699219 C 86.382812 -146.6875 86.261719 -146.65625 86.101562 -146.601562 C 85.050781 -146.25 84.125 -145.5625 83.328125 -144.539062 C 82.863281 -143.941406 82.582031 -143.417969 82.480469 -142.96875 C 82.542969 -143.257812 82.578125 -143.75 82.578125 -144.449219 L 82.578125 -154.605469 L 105.464844 -154.605469 L 105.464844 -87.53125 L 82.578125 -87.53125 L 82.578125 -97.6875 C 82.578125 -104.925781 81.257812 -111.160156 78.613281 -116.390625 C 76.085938 -121.402344 72.699219 -125.253906 68.457031 -127.957031 C 64.308594 -130.59375 59.519531 -131.914062 54.09375 -131.914062 C 51.222656 -131.914062 48.886719 -131.617188 47.082031 -131.019531 C 45.921875 -130.632812 45.082031 -130.15625 44.554688 -129.578125 C 42.890625 -127.753906 42.058594 -125.246094 42.058594 -122.058594 C 42.058594 -117.703125 43.171875 -113.917969 45.398438 -110.703125 C 48.199219 -106.664062 51.863281 -102.957031 56.390625 -99.59375 C 61.597656 -95.71875 67.128906 -91.9375 72.984375 -88.246094 C 79.367188 -84.21875 85.414062 -79.945312 91.113281 -75.425781 C 97.398438 -70.445312 102.558594 -64.851562 106.597656 -58.636719 C 111.125 -51.671875 113.390625 -43.617188 113.390625 -34.476562 C 113.390625 -26.175781 111.691406 -18.550781 108.296875 -11.59375 C 104.625 -4.070312 98.648438 1.894531 90.363281 6.292969 C 82.535156 10.453125 72.160156 12.53125 59.246094 12.53125 C 52.996094 12.53125 47.617188 11.96875 43.109375 10.84375 C 38.789062 9.761719 34.984375 8.460938 31.695312 6.933594 C 29.117188 5.742188 26.777344 4.710938 24.667969 3.84375 C 23.660156 3.425781 22.636719 3.21875 21.597656 3.21875 C 20.925781 3.21875 20.425781 3.261719 20.105469 3.34375 C 20.304688 3.292969 20.574219 3.136719 20.910156 2.878906 C 21.546875 2.394531 22.03125 1.78125 22.355469 1.039062 C 22.542969 0.609375 22.636719 0.261719 22.636719 0 L 22.636719 10.15625 L -0.246094 10.15625 Z M 20.0625 0 L 9.90625 0 L 9.90625 -10.15625 L 12.484375 -10.15625 L 12.484375 0 L 2.328125 0 C 2.328125 -2.574219 2.800781 -4.945312 3.75 -7.109375 C 4.835938 -9.585938 6.457031 -11.640625 8.613281 -13.28125 C 11.949219 -15.820312 16.277344 -17.089844 21.597656 -17.089844 C 25.316406 -17.089844 28.914062 -16.371094 32.398438 -14.9375 C 34.78125 -13.957031 37.390625 -12.808594 40.234375 -11.492188 C 42.359375 -10.507812 44.960938 -9.628906 48.035156 -8.859375 C 50.925781 -8.136719 54.664062 -7.777344 59.246094 -7.777344 C 68.789062 -7.777344 75.984375 -9.066406 80.835938 -11.644531 C 85.234375 -13.980469 88.304688 -16.933594 90.046875 -20.503906 C 92.066406 -24.648438 93.078125 -29.304688 93.078125 -34.476562 C 93.078125 -39.605469 91.910156 -43.96875 89.566406 -47.570312 C 86.738281 -51.925781 83.046875 -55.90625 78.5 -59.511719 C 73.367188 -63.578125 67.917969 -67.429688 62.152344 -71.0625 C 55.855469 -75.035156 49.894531 -79.113281 44.269531 -83.296875 C 37.960938 -87.988281 32.773438 -93.265625 28.707031 -99.132812 C 24.066406 -105.824219 21.746094 -113.46875 21.746094 -122.058594 C 21.746094 -130.496094 24.347656 -137.5625 29.550781 -143.269531 C 35 -149.238281 43.179688 -152.226562 54.09375 -152.226562 C 63.460938 -152.226562 71.886719 -149.847656 79.359375 -145.089844 C 86.742188 -140.390625 92.539062 -133.878906 96.746094 -125.546875 C 100.839844 -117.433594 102.886719 -108.148438 102.886719 -97.6875 L 92.730469 -97.6875 L 92.730469 -107.839844 L 95.308594 -107.839844 L 95.308594 -97.6875 L 85.152344 -97.6875 L 85.152344 -144.449219 L 95.308594 -144.449219 L 95.308594 -134.292969 L 92.730469 -134.292969 L 92.730469 -144.449219 L 102.886719 -144.449219 C 102.886719 -139.21875 101.710938 -135.09375 99.359375 -132.070312 C 96.402344 -128.269531 91.949219 -126.367188 85.996094 -126.367188 C 82.460938 -126.367188 78.972656 -127.199219 75.527344 -128.867188 C 73.316406 -129.9375 70.875 -131.210938 68.203125 -132.6875 C 66.375 -133.699219 64.085938 -134.59375 61.335938 -135.371094 C 58.738281 -136.105469 55.398438 -136.472656 51.320312 -136.472656 C 46.136719 -136.472656 40.976562 -135.457031 35.835938 -133.421875 C 31.109375 -131.550781 27.21875 -128.773438 24.164062 -125.089844 C 21.5625 -121.949219 20.261719 -117.765625 20.261719 -112.546875 C 20.261719 -108.246094 21.449219 -104.300781 23.820312 -100.71875 C 26.738281 -96.320312 30.585938 -92.207031 35.371094 -88.378906 C 40.761719 -84.0625 46.445312 -79.90625 52.417969 -75.90625 C 58.78125 -71.640625 64.84375 -67.339844 70.605469 -63 C 76.972656 -58.203125 82.195312 -53.117188 86.265625 -47.742188 C 91.136719 -41.304688 93.574219 -34.175781 93.574219 -26.351562 C 93.574219 -18.363281 91.6875 -11.734375 87.90625 -6.46875 C 84.179688 -1.269531 79.253906 2.449219 73.132812 4.683594 C 67.84375 6.613281 62.09375 7.578125 55.878906 7.578125 C 45.945312 7.578125 36.871094 5.117188 28.65625 0.1875 C 20.25 -4.855469 13.695312 -12.527344 8.992188 -22.828125 C 4.550781 -32.554688 2.328125 -44.761719 2.328125 -59.445312 L 12.484375 -59.445312 L 12.484375 -49.289062 L 9.90625 -49.289062 L 9.90625 -59.445312 L 20.0625 -59.445312 Z M 20.0625 0 "/></g></g></g><g fill="#000000" fill-opacity="1"><g transform="translate(2.600789, 159.150187)"><g><path d="M 9.90625 0 L 9.90625 -59.4375 L 12.484375 -59.4375 C 12.484375 -46.226562 14.394531 -35.429688 18.21875 -27.046875 C 22.050781 -18.660156 27.269531 -12.484375 33.875 -8.515625 C 40.488281 -4.554688 47.820312 -2.578125 55.875 -2.578125 C 60.894531 -2.578125 65.484375 -3.335938 69.640625 -4.859375 C 73.804688 -6.378906 77.144531 -8.890625 79.65625 -12.390625 C 82.164062 -15.890625 83.421875 -20.546875 83.421875 -26.359375 C 83.421875 -31.898438 81.671875 -36.984375 78.171875 -41.609375 C 74.671875 -46.234375 70.113281 -50.65625 64.5 -54.875 C 58.882812 -59.101562 52.972656 -63.296875 46.765625 -67.453125 C 40.554688 -71.617188 34.644531 -75.945312 29.03125 -80.4375 C 23.414062 -84.9375 18.859375 -89.828125 15.359375 -95.109375 C 11.859375 -100.390625 10.109375 -106.203125 10.109375 -112.546875 C 10.109375 -120.203125 12.1875 -126.539062 16.34375 -131.5625 C 20.507812 -136.582031 25.757812 -140.347656 32.09375 -142.859375 C 38.4375 -145.367188 44.84375 -146.625 51.3125 -146.625 C 56.332031 -146.625 60.59375 -146.128906 64.09375 -145.140625 C 67.59375 -144.148438 70.597656 -142.957031 73.109375 -141.5625 C 75.617188 -140.175781 77.894531 -138.988281 79.9375 -138 C 81.988281 -137.007812 84.007812 -136.515625 86 -136.515625 C 88.632812 -136.515625 90.414062 -137.109375 91.34375 -138.296875 C 92.269531 -139.484375 92.734375 -141.53125 92.734375 -144.4375 L 95.3125 -144.4375 L 95.3125 -97.6875 L 92.734375 -97.6875 C 92.734375 -106.53125 91.046875 -114.285156 87.671875 -120.953125 C 84.304688 -127.628906 79.71875 -132.816406 73.90625 -136.515625 C 68.09375 -140.210938 61.488281 -142.0625 54.09375 -142.0625 C 46.164062 -142.0625 40.484375 -140.175781 37.046875 -136.40625 C 33.617188 -132.644531 31.90625 -127.859375 31.90625 -122.046875 C 31.90625 -115.578125 33.617188 -109.863281 37.046875 -104.90625 C 40.484375 -99.957031 44.910156 -95.46875 50.328125 -91.4375 C 55.742188 -87.414062 61.488281 -83.488281 67.5625 -79.65625 C 73.644531 -75.820312 79.390625 -71.757812 84.796875 -67.46875 C 90.210938 -63.175781 94.640625 -58.382812 98.078125 -53.09375 C 101.515625 -47.8125 103.234375 -41.601562 103.234375 -34.46875 C 103.234375 -27.738281 101.878906 -21.597656 99.171875 -16.046875 C 96.460938 -10.503906 91.9375 -6.046875 85.59375 -2.671875 C 79.257812 0.691406 70.476562 2.375 59.25 2.375 C 53.832031 2.375 49.273438 1.910156 45.578125 0.984375 C 41.878906 0.0664062 38.675781 -1.015625 35.96875 -2.265625 C 33.257812 -3.523438 30.78125 -4.617188 28.53125 -5.546875 C 26.28125 -6.472656 23.96875 -6.9375 21.59375 -6.9375 C 15.519531 -6.9375 12.484375 -4.625 12.484375 0 Z M 9.90625 0 "/></g></g></g></g></g><g transform="matrix(1, 0, 0, 1, 38, 250)"><g clip-path="url(#c50279964a)"><g fill="#000000" fill-opacity="1"><g transform="translate(1.37323, 17.573616)"><g><path d="M 4.65625 -5.65625 C 2.207031 -6.21875 0.984375 -7.257812 0.984375 -8.78125 C 0.984375 -9.914062 1.378906 -10.765625 2.171875 -11.328125 C 2.953125 -11.878906 3.875 -12.15625 4.9375 -12.15625 C 7.269531 -12.15625 8.65625 -11.285156 9.09375 -9.546875 L 7.75 -9.546875 C 7.507812 -10.578125 6.570312 -11.09375 4.9375 -11.09375 C 3.78125 -11.09375 2.972656 -10.753906 2.515625 -10.078125 C 2.335938 -9.816406 2.25 -9.492188 2.25 -9.109375 C 2.25 -8.367188 2.648438 -7.796875 3.453125 -7.390625 C 3.828125 -7.191406 4.625 -6.9375 5.84375 -6.625 C 7.0625 -6.300781 7.945312 -5.945312 8.5 -5.5625 C 9.269531 -5.019531 9.65625 -4.265625 9.65625 -3.296875 C 9.65625 -2.085938 9.175781 -1.171875 8.21875 -0.546875 C 7.425781 -0.0234375 6.441406 0.234375 5.265625 0.234375 C 2.609375 0.234375 1.070312 -0.773438 0.65625 -2.796875 L 2.109375 -2.796875 C 2.335938 -1.523438 3.390625 -0.890625 5.265625 -0.890625 C 6.597656 -0.890625 7.53125 -1.257812 8.0625 -2 C 8.269531 -2.300781 8.375 -2.703125 8.375 -3.203125 C 8.375 -3.691406 8.179688 -4.097656 7.796875 -4.421875 C 7.242188 -4.867188 6.195312 -5.28125 4.65625 -5.65625 Z M 4.65625 -5.65625 "/></g></g></g><g fill="#000000" fill-opacity="1"><g transform="translate(16.567793, 17.573616)"><g><path d="M 2.546875 0 L 1.328125 0 L 1.328125 -11.96875 L 2.546875 -11.96875 Z M 2.546875 0 "/></g></g></g><g fill="#000000" fill-opacity="1"><g transform="translate(25.531603, 17.573616)"><g><path d="M 12.359375 0 L 10.5 -8.515625 L 6.90625 0.703125 L 3.296875 -8.515625 L 1.4375 0 L 0.171875 0 L 2.96875 -12.765625 L 6.90625 -2.515625 L 10.828125 -12.765625 L 13.609375 0 Z M 12.359375 0 "/></g></g></g><g fill="#000000" fill-opacity="1"><g transform="translate(44.404781, 17.573616)"><g><path d="M 11.875 -6.015625 C 11.875 -7.367188 11.390625 -8.523438 10.421875 -9.484375 C 9.460938 -10.453125 8.300781 -10.9375 6.9375 -10.9375 C 5.582031 -10.9375 4.425781 -10.453125 3.46875 -9.484375 C 2.507812 -8.523438 2.03125 -7.367188 2.03125 -6.015625 C 2.03125 -4.660156 2.507812 -3.5 3.46875 -2.53125 C 4.425781 -1.570312 5.582031 -1.09375 6.9375 -1.09375 C 8.300781 -1.09375 9.460938 -1.570312 10.421875 -2.53125 C 11.390625 -3.5 11.875 -4.660156 11.875 -6.015625 Z M 13.09375 -6.015625 C 13.09375 -5.171875 12.9375 -4.375 12.625 -3.625 C 12.300781 -2.875 11.863281 -2.222656 11.3125 -1.671875 C 10.738281 -1.109375 10.078125 -0.671875 9.328125 -0.359375 C 8.578125 -0.0234375 7.78125 0.140625 6.9375 0.140625 C 6.09375 0.140625 5.300781 -0.0234375 4.5625 -0.359375 C 3.8125 -0.671875 3.160156 -1.109375 2.609375 -1.671875 C 2.046875 -2.222656 1.601562 -2.875 1.28125 -3.625 C 0.957031 -4.375 0.796875 -5.171875 0.796875 -6.015625 C 0.796875 -6.867188 0.957031 -7.671875 1.28125 -8.421875 C 1.601562 -9.171875 2.046875 -9.820312 2.609375 -10.375 C 3.160156 -10.925781 3.8125 -11.363281 4.5625 -11.6875 C 5.300781 -12.007812 6.09375 -12.171875 6.9375 -12.171875 C 7.78125 -12.171875 8.578125 -12.007812 9.328125 -11.6875 C 10.078125 -11.363281 10.738281 -10.925781 11.3125 -10.375 C 11.863281 -9.820312 12.300781 -9.171875 12.625 -8.421875 C 12.9375 -7.671875 13.09375 -6.867188 13.09375 -6.015625 Z M 13.09375 -6.015625 "/></g></g></g><g fill="#000000" fill-opacity="1"><g transform="translate(63.383558, 17.573616)"><g><path d="M 2.546875 -8.828125 L 2.546875 0 L 1.328125 0 L 1.328125 -12.734375 L 8.046875 -3.171875 L 8.046875 -11.96875 L 9.28125 -11.96875 L 9.28125 0.734375 Z M 2.546875 -8.828125 "/></g></g></g><g fill="#000000" fill-opacity="1"><g transform="translate(79.070957, 17.573616)"><g><path d="M 8.4375 0 L 1.328125 0 L 1.328125 -11.96875 L 8.4375 -11.96875 L 8.4375 -10.828125 L 2.546875 -10.828125 L 2.546875 -6.5625 L 8.265625 -6.5625 L 8.265625 -5.40625 L 2.546875 -5.40625 L 2.546875 -1.140625 L 8.4375 -1.140625 Z M 8.4375 0 "/></g></g></g><g fill="#000000" fill-opacity="1"><g transform="translate(93.913502, 17.573616)"><g/></g></g><g fill="#000000" fill-opacity="1"><g transform="translate(103.757371, 17.573616)"><g><path d="M 12.3125 -3.65625 C 11.863281 -2.507812 11.132812 -1.585938 10.125 -0.890625 C 9.101562 -0.179688 7.984375 0.171875 6.765625 0.171875 C 5.109375 0.171875 3.691406 -0.4375 2.515625 -1.65625 C 1.367188 -2.851562 0.796875 -4.289062 0.796875 -5.96875 C 0.796875 -6.800781 0.945312 -7.59375 1.25 -8.34375 C 1.550781 -9.082031 1.972656 -9.734375 2.515625 -10.296875 C 3.691406 -11.523438 5.109375 -12.140625 6.765625 -12.140625 C 7.984375 -12.140625 9.097656 -11.789062 10.109375 -11.09375 C 11.117188 -10.382812 11.847656 -9.460938 12.296875 -8.328125 L 10.9375 -8.328125 C 10.289062 -9.515625 9.328125 -10.300781 8.046875 -10.6875 C 7.617188 -10.800781 7.128906 -10.859375 6.578125 -10.859375 C 6.035156 -10.859375 5.472656 -10.734375 4.890625 -10.484375 C 4.316406 -10.210938 3.820312 -9.851562 3.40625 -9.40625 C 2.488281 -8.457031 2.03125 -7.3125 2.03125 -5.96875 C 2.03125 -4.644531 2.488281 -3.503906 3.40625 -2.546875 C 4.332031 -1.578125 5.453125 -1.09375 6.765625 -1.09375 C 7.648438 -1.09375 8.472656 -1.328125 9.234375 -1.796875 C 9.972656 -2.265625 10.546875 -2.882812 10.953125 -3.65625 Z M 12.3125 -3.65625 "/></g></g></g><g fill="#000000" fill-opacity="1"><g transform="translate(121.680094, 17.573616)"><g><path d="M 11.875 -6.015625 C 11.875 -7.367188 11.390625 -8.523438 10.421875 -9.484375 C 9.460938 -10.453125 8.300781 -10.9375 6.9375 -10.9375 C 5.582031 -10.9375 4.425781 -10.453125 3.46875 -9.484375 C 2.507812 -8.523438 2.03125 -7.367188 2.03125 -6.015625 C 2.03125 -4.660156 2.507812 -3.5 3.46875 -2.53125 C 4.425781 -1.570312 5.582031 -1.09375 6.9375 -1.09375 C 8.300781 -1.09375 9.460938 -1.570312 10.421875 -2.53125 C 11.390625 -3.5 11.875 -4.660156 11.875 -6.015625 Z M 13.09375 -6.015625 C 13.09375 -5.171875 12.9375 -4.375 12.625 -3.625 C 12.300781 -2.875 11.863281 -2.222656 11.3125 -1.671875 C 10.738281 -1.109375 10.078125 -0.671875 9.328125 -0.359375 C 8.578125 -0.0234375 7.78125 0.140625 6.9375 0.140625 C 6.09375 0.140625 5.300781 -0.0234375 4.5625 -0.359375 C 3.8125 -0.671875 3.160156 -1.109375 2.609375 -1.671875 C 2.046875 -2.222656 1.601562 -2.875 1.28125 -3.625 C 0.957031 -4.375 0.796875 -5.171875 0.796875 -6.015625 C 0.796875 -6.867188 0.957031 -7.671875 1.28125 -8.421875 C 1.601562 -9.171875 2.046875 -9.820312 2.609375 -10.375 C 3.160156 -10.925781 3.8125 -11.363281 4.5625 -11.6875 C 5.300781 -12.007812 6.09375 -12.171875 6.9375 -12.171875 C 7.78125 -12.171875 8.578125 -12.007812 9.328125 -11.6875 C 10.078125 -11.363281 10.738281 -10.925781 11.3125 -10.375 C 11.863281 -9.820312 12.300781 -9.171875 12.625 -8.421875 C 12.9375 -7.671875 13.09375 -6.867188 13.09375 -6.015625 Z M 13.09375 -6.015625 "/></g></g></g><g fill="#000000" fill-opacity="1"><g transform="translate(140.658871, 17.573616)"><g><path d="M 2.546875 -8.828125 L 2.546875 0 L 1.328125 0 L 1.328125 -12.734375 L 8.046875 -3.171875 L 8.046875 -11.96875 L 9.28125 -11.96875 L 9.28125 0.734375 Z M 2.546875 -8.828125 "/></g></g></g><g fill="#000000" fill-opacity="1"><g transform="translate(156.34627, 17.573616)"><g><path d="M 0.359375 -10.859375 L 0.359375 -12.015625 L 7.390625 -12.015625 L 7.390625 -10.859375 L 4.484375 -10.859375 L 4.484375 -0.03125 L 3.25 -0.03125 L 3.25 -10.859375 Z M 0.359375 -10.859375 "/></g></g></g><g fill="#000000" fill-opacity="1"><g transform="translate(169.182307, 17.573616)"><g><path d="M 8.4375 0 L 1.328125 0 L 1.328125 -11.96875 L 8.4375 -11.96875 L 8.4375 -10.828125 L 2.546875 -10.828125 L 2.546875 -6.5625 L 8.265625 -6.5625 L 8.265625 -5.40625 L 2.546875 -5.40625 L 2.546875 -1.140625 L 8.4375 -1.140625 Z M 8.4375 0 "/></g></g></g><g fill="#000000" fill-opacity="1"><g transform="translate(184.024851, 17.573616)"><g><path d="M 13.140625 -5.59375 L 13.015625 -4.859375 C 12.753906 -3.398438 12.039062 -2.203125 10.875 -1.265625 C 9.71875 -0.328125 8.410156 0.140625 6.953125 0.140625 C 6.109375 0.140625 5.3125 -0.0234375 4.5625 -0.359375 C 3.8125 -0.671875 3.160156 -1.109375 2.609375 -1.671875 C 2.046875 -2.222656 1.601562 -2.875 1.28125 -3.625 C 0.957031 -4.375 0.796875 -5.179688 0.796875 -6.046875 C 0.796875 -6.890625 0.957031 -7.6875 1.28125 -8.4375 C 1.601562 -9.1875 2.046875 -9.84375 2.609375 -10.40625 C 3.160156 -10.957031 3.8125 -11.398438 4.5625 -11.734375 C 5.3125 -12.046875 6.066406 -12.203125 6.828125 -12.203125 C 8.265625 -12.203125 9.53125 -11.796875 10.625 -10.984375 C 11.726562 -10.171875 12.476562 -9.101562 12.875 -7.78125 L 11.5625 -7.78125 C 11.1875 -8.757812 10.582031 -9.535156 9.75 -10.109375 C 8.90625 -10.679688 7.972656 -10.96875 6.953125 -10.96875 C 5.585938 -10.96875 4.425781 -10.488281 3.46875 -9.53125 C 2.507812 -8.5625 2.03125 -7.398438 2.03125 -6.046875 C 2.03125 -4.691406 2.507812 -3.523438 3.46875 -2.546875 C 4.414062 -1.578125 5.578125 -1.09375 6.953125 -1.09375 C 8.035156 -1.09375 9.023438 -1.40625 9.921875 -2.03125 C 10.796875 -2.65625 11.410156 -3.488281 11.765625 -4.53125 L 6.90625 -4.53125 L 6.90625 -5.59375 Z M 13.140625 -5.59375 "/></g></g></g><g fill="#000000" fill-opacity="1"><g transform="translate(203.038833, 17.573616)"><g><path d="M 2.546875 0 L 1.328125 0 L 1.328125 -11.96875 L 2.546875 -11.96875 Z M 2.546875 0 "/></g></g></g><g fill="#000000" fill-opacity="1"><g transform="translate(212.002643, 17.573616)"><g><path d="M 3.25 -4.40625 L 7.609375 -4.40625 L 5.4375 -9.921875 Z M 10.6875 0 L 9.34375 0 L 8.0625 -3.25 L 2.796875 -3.25 L 1.515625 0 L 0.171875 0 L 5.4375 -12.796875 Z M 10.6875 0 "/></g></g></g><g fill="#000000" fill-opacity="1"><g transform="translate(227.954049, 17.573616)"><g><path d="M 12.3125 -3.65625 C 11.863281 -2.507812 11.132812 -1.585938 10.125 -0.890625 C 9.101562 -0.179688 7.984375 0.171875 6.765625 0.171875 C 5.109375 0.171875 3.691406 -0.4375 2.515625 -1.65625 C 1.367188 -2.851562 0.796875 -4.289062 0.796875 -5.96875 C 0.796875 -6.800781 0.945312 -7.59375 1.25 -8.34375 C 1.550781 -9.082031 1.972656 -9.734375 2.515625 -10.296875 C 3.691406 -11.523438 5.109375 -12.140625 6.765625 -12.140625 C 7.984375 -12.140625 9.097656 -11.789062 10.109375 -11.09375 C 11.117188 -10.382812 11.847656 -9.460938 12.296875 -8.328125 L 10.9375 -8.328125 C 10.289062 -9.515625 9.328125 -10.300781 8.046875 -10.6875 C 7.617188 -10.800781 7.128906 -10.859375 6.578125 -10.859375 C 6.035156 -10.859375 5.472656 -10.734375 4.890625 -10.484375 C 4.316406 -10.210938 3.820312 -9.851562 3.40625 -9.40625 C 2.488281 -8.457031 2.03125 -7.3125 2.03125 -5.96875 C 2.03125 -4.644531 2.488281 -3.503906 3.40625 -2.546875 C 4.332031 -1.578125 5.453125 -1.09375 6.765625 -1.09375 C 7.648438 -1.09375 8.472656 -1.328125 9.234375 -1.796875 C 9.972656 -2.265625 10.546875 -2.882812 10.953125 -3.65625 Z M 12.3125 -3.65625 "/></g></g></g><g fill="#000000" fill-opacity="1"><g transform="translate(245.876758, 17.573616)"><g><path d="M 11.875 -6.015625 C 11.875 -7.367188 11.390625 -8.523438 10.421875 -9.484375 C 9.460938 -10.453125 8.300781 -10.9375 6.9375 -10.9375 C 5.582031 -10.9375 4.425781 -10.453125 3.46875 -9.484375 C 2.507812 -8.523438 2.03125 -7.367188 2.03125 -6.015625 C 2.03125 -4.660156 2.507812 -3.5 3.46875 -2.53125 C 4.425781 -1.570312 5.582031 -1.09375 6.9375 -1.09375 C 8.300781 -1.09375 9.460938 -1.570312 10.421875 -2.53125 C 11.390625 -3.5 11.875 -4.660156 11.875 -6.015625 Z M 13.09375 -6.015625 C 13.09375 -5.171875 12.9375 -4.375 12.625 -3.625 C 12.300781 -2.875 11.863281 -2.222656 11.3125 -1.671875 C 10.738281 -1.109375 10.078125 -0.671875 9.328125 -0.359375 C 8.578125 -0.0234375 7.78125 0.140625 6.9375 0.140625 C 6.09375 0.140625 5.300781 -0.0234375 4.5625 -0.359375 C 3.8125 -0.671875 3.160156 -1.109375 2.609375 -1.671875 C 2.046875 -2.222656 1.601562 -2.875 1.28125 -3.625 C 0.957031 -4.375 0.796875 -5.171875 0.796875 -6.015625 C 0.796875 -6.867188 0.957031 -7.671875 1.28125 -8.421875 C 1.601562 -9.171875 2.046875 -9.820312 2.609375 -10.375 C 3.160156 -10.925781 3.8125 -11.363281 4.5625 -11.6875 C 5.300781 -12.007812 6.09375 -12.171875 6.9375 -12.171875 C 7.78125 -12.171875 8.578125 -12.007812 9.328125 -11.6875 C 10.078125 -11.363281 10.738281 -10.925781 11.3125 -10.375 C 11.863281 -9.820312 12.300781 -9.171875 12.625 -8.421875 C 12.9375 -7.671875 13.09375 -6.867188 13.09375 -6.015625 Z M 13.09375 -6.015625 "/></g></g></g><g fill="#000000" fill-opacity="1"><g transform="translate(264.855549, 17.573616)"><g><path d="M 12.359375 0 L 10.5 -8.515625 L 6.90625 0.703125 L 3.296875 -8.515625 L 1.4375 0 L 0.171875 0 L 2.96875 -12.765625 L 6.90625 -2.515625 L 10.828125 -12.765625 L 13.609375 0 Z M 12.359375 0 "/></g></g></g><g fill="#000000" fill-opacity="1"><g transform="translate(283.728727, 17.573616)"><g><path d="M 11.875 -6.015625 C 11.875 -7.367188 11.390625 -8.523438 10.421875 -9.484375 C 9.460938 -10.453125 8.300781 -10.9375 6.9375 -10.9375 C 5.582031 -10.9375 4.425781 -10.453125 3.46875 -9.484375 C 2.507812 -8.523438 2.03125 -7.367188 2.03125 -6.015625 C 2.03125 -4.660156 2.507812 -3.5 3.46875 -2.53125 C 4.425781 -1.570312 5.582031 -1.09375 6.9375 -1.09375 C 8.300781 -1.09375 9.460938 -1.570312 10.421875 -2.53125 C 11.390625 -3.5 11.875 -4.660156 11.875 -6.015625 Z M 13.09375 -6.015625 C 13.09375 -5.171875 12.9375 -4.375 12.625 -3.625 C 12.300781 -2.875 11.863281 -2.222656 11.3125 -1.671875 C 10.738281 -1.109375 10.078125 -0.671875 9.328125 -0.359375 C 8.578125 -0.0234375 7.78125 0.140625 6.9375 0.140625 C 6.09375 0.140625 5.300781 -0.0234375 4.5625 -0.359375 C 3.8125 -0.671875 3.160156 -1.109375 2.609375 -1.671875 C 2.046875 -2.222656 1.601562 -2.875 1.28125 -3.625 C 0.957031 -4.375 0.796875 -5.171875 0.796875 -6.015625 C 0.796875 -6.867188 0.957031 -7.671875 1.28125 -8.421875 C 1.601562 -9.171875 2.046875 -9.820312 2.609375 -10.375 C 3.160156 -10.925781 3.8125 -11.363281 4.5625 -11.6875 C 5.300781 -12.007812 6.09375 -12.171875 6.9375 -12.171875 C 7.78125 -12.171875 8.578125 -12.007812 9.328125 -11.6875 C 10.078125 -11.363281 10.738281 -10.925781 11.3125 -10.375 C 11.863281 -9.820312 12.300781 -9.171875 12.625 -8.421875 C 12.9375 -7.671875 13.09375 -6.867188 13.09375 -6.015625 Z M 13.09375 -6.015625 "/></g></g></g></g></g></svg>